<?xml version="1.0" encoding="UTF-8"?><svg xmlns="http://www.w3.org/2000/svg" xmlns:xlink="http://www.w3.org/1999/xlink" height="702.2" preserveAspectRatio="xMidYMid meet" version="1.0" viewBox="0.0 0.0 325.4 702.2" width="325.4" zoomAndPan="magnify"><defs><clipPath id="a"><path d="M 0 0 L 325.359375 0 L 325.359375 326 L 0 326 Z M 0 0"/></clipPath><clipPath id="b"><path d="M 63 13 L 325.359375 13 L 325.359375 326 L 63 326 Z M 63 13"/></clipPath></defs><g><g id="change1_1"><path d="M 189.773438 670.394531 L 175.886719 693.386719 C 170.558594 702.203125 157.769531 702.203125 152.441406 693.386719 L 138.554688 670.394531 L 138.554688 304.964844 L 189.773438 304.964844 L 189.773438 670.394531" fill="#4d4d4d"/></g><path d="M 152.441406 693.386719 C 154.488281 696.773438 157.636719 698.832031 161.039062 699.617188 L 161.039062 304.964844 L 146.917969 304.964844 L 146.917969 684.238281 L 152.441406 693.386719" fill="gray"/><g id="change2_1"><path d="M 176.929688 304.964844 L 176.929688 691.660156 L 189.773438 670.394531 L 189.773438 304.964844 L 176.929688 304.964844" fill="#1a1a1a"/></g><g clip-path="url(#a)" id="change3_1"><path d="M 325.355469 162.675781 C 325.355469 252.519531 252.519531 325.351562 162.675781 325.351562 C 72.835938 325.351562 0 252.519531 0 162.675781 C 0 72.832031 72.835938 0 162.675781 0 C 252.519531 0 325.355469 72.832031 325.355469 162.675781" fill="#f12200"/></g><g clip-path="url(#b)" id="change4_1"><path d="M 227.515625 13.515625 C 266.09375 43.261719 291.050781 89.804688 291.050781 142.285156 C 291.050781 232.132812 218.21875 304.964844 128.371094 304.964844 C 105.3125 304.964844 83.410156 300.101562 63.539062 291.449219 C 91 312.625 125.316406 325.351562 162.679688 325.351562 C 252.519531 325.351562 325.355469 252.519531 325.355469 162.675781 C 325.355469 95.894531 285.074219 38.574219 227.515625 13.515625" fill="#9e1600"/></g><g id="change5_1"><path d="M 172.558594 107.285156 C 172.558594 141.609375 144.734375 169.433594 110.410156 169.433594 C 76.085938 169.433594 48.261719 141.609375 48.261719 107.285156 C 48.261719 72.960938 76.085938 45.136719 110.410156 45.136719 C 144.734375 45.136719 172.558594 72.960938 172.558594 107.285156" fill="#ffd6cf"/></g></g></svg>